<?xml version="1.0" encoding="utf-8"?>
<!-- Generator: Adobe Illustrator 16.0.0, SVG Export Plug-In . SVG Version: 6.00 Build 0)  -->
<!DOCTYPE svg PUBLIC "-//W3C//DTD SVG 1.1//EN" "http://www.w3.org/Graphics/SVG/1.1/DTD/svg11.dtd">
<svg version="1.1" id="Layer_1" xmlns="http://www.w3.org/2000/svg" xmlns:xlink="http://www.w3.org/1999/xlink" x="0px" y="0px"
	 width="160px" height="40px" viewBox="0 0 160 40" enable-background="new 0 0 160 40" xml:space="preserve">
<g>
	<path d="M32.969,16.953L18.828,31.094c-0.33,0.33-0.729,0.496-1.197,0.496c-0.452,0-0.843-0.166-1.172-0.496l-9.428-9.426
		c-0.312-0.312-0.469-0.704-0.469-1.173c0-0.486,0.156-0.886,0.469-1.198l2.37-2.344c0.33-0.33,0.72-0.495,1.172-0.495
		c0.451,0,0.842,0.165,1.172,0.495l5.886,5.887l10.625-10.6c0.33-0.33,0.721-0.495,1.172-0.495S30.27,11.91,30.6,12.24l2.369,2.344
		c0.312,0.312,0.469,0.711,0.469,1.198C33.438,16.25,33.281,16.641,32.969,16.953L32.969,16.953z M37.318,9.961
		c-1.789-3.064-4.215-5.49-7.279-7.279C26.975,0.894,23.629,0,20.001,0c-3.629,0-6.976,0.894-10.039,2.682
		C6.897,4.47,4.472,6.896,2.683,9.961C0.895,13.025,0,16.372,0,20c0,3.629,0.895,6.975,2.683,10.041
		c1.788,3.062,4.214,5.488,7.278,7.277S16.372,40,20.001,40c3.628,0,6.974-0.893,10.038-2.682c3.064-1.787,5.49-4.215,7.279-7.277
		C39.105,26.977,40,23.629,40,20C40,16.372,39.105,13.025,37.318,9.961L37.318,9.961z"/>
</g>
<g>
	<g>
		<defs>
			<rect id="SVGID_1_" x="40" width="40" height="40"/>
		</defs>
		<clipPath id="SVGID_2_">
			<use xlink:href="#SVGID_1_"  overflow="visible"/>
		</clipPath>
		<path clip-path="url(#SVGID_2_)" d="M62.811,24.062c-0.016,0.16-0.094,0.293-0.234,0.396c-0.143,0.104-0.316,0.156-0.523,0.156
			h-4.125c-0.208,0-0.386-0.053-0.535-0.156c-0.148-0.105-0.223-0.236-0.223-0.396L56.79,13.077c0-0.225,0.075-0.393,0.223-0.505
			c0.193-0.176,0.372-0.264,0.535-0.264h4.905c0.164,0,0.342,0.088,0.535,0.264c0.148,0.112,0.223,0.265,0.223,0.457L62.811,24.062
			L62.811,24.062z M62.855,33.053c0,0.225-0.072,0.412-0.213,0.564s-0.309,0.229-0.502,0.229h-4.28
			c-0.193,0-0.361-0.076-0.502-0.229c-0.141-0.152-0.212-0.34-0.212-0.564v-4.568c0-0.223,0.071-0.412,0.212-0.564
			c0.141-0.152,0.308-0.227,0.502-0.227h4.28c0.193,0,0.361,0.074,0.502,0.227s0.213,0.342,0.213,0.564V33.053L62.855,33.053
			L62.855,33.053z M79.621,35.457L62.498,1.611c-0.254-0.497-0.602-0.89-1.049-1.178C61.004,0.145,60.521,0,60,0
			s-1.004,0.145-1.449,0.433c-0.445,0.289-0.795,0.681-1.048,1.178L40.38,35.457c-0.521,1.01-0.505,2.02,0.044,3.029
			c0.253,0.463,0.599,0.832,1.037,1.104C41.9,39.863,42.372,40,42.877,40h34.246c0.506,0,0.979-0.137,1.416-0.41
			c0.439-0.271,0.785-0.641,1.037-1.104C80.127,37.477,80.141,36.467,79.621,35.457L79.621,35.457z"/>
	</g>
</g>
<g>
	<path d="M103.282,23.516c-0.018,0.174-0.108,0.325-0.273,0.456c-0.165,0.13-0.369,0.194-0.611,0.194h-4.818
		c-0.243,0-0.452-0.064-0.625-0.194c-0.174-0.131-0.261-0.282-0.261-0.456L96.251,7.343c0-0.208,0.087-0.365,0.261-0.469
		c0.174-0.139,0.381-0.208,0.625-0.208h5.729c0.243,0,0.451,0.069,0.625,0.208c0.173,0.104,0.26,0.26,0.26,0.469L103.282,23.516
		L103.282,23.516z M103.334,32.474c0,0.243-0.078,0.447-0.234,0.612s-0.348,0.247-0.573,0.247h-5c-0.226,0-0.425-0.087-0.599-0.261
		c-0.174-0.173-0.261-0.373-0.261-0.599v-4.947c0-0.226,0.087-0.426,0.261-0.6c0.174-0.173,0.373-0.26,0.599-0.26h5
		c0.226,0,0.418,0.082,0.573,0.247c0.156,0.165,0.234,0.369,0.234,0.612V32.474L103.334,32.474z M117.318,9.96
		c-1.788-3.064-4.214-5.49-7.278-7.278C106.975,0.894,103.63,0,100.001,0s-6.976,0.894-10.04,2.682
		c-3.063,1.788-5.49,4.214-7.278,7.278C80.894,13.025,80,16.372,80,20c0,3.628,0.895,6.975,2.683,10.039
		c1.788,3.063,4.214,5.49,7.278,7.278S96.372,40,100,40c3.629,0,6.976-0.895,10.04-2.683c3.063-1.788,5.489-4.214,7.278-7.278
		C119.106,26.975,120,23.628,120,20C120,16.372,119.106,13.024,117.318,9.96L117.318,9.96z"/>
</g>
<g>
	<path d="M146.667,32.5c0,0.243-0.078,0.442-0.234,0.599c-0.155,0.156-0.355,0.234-0.599,0.234h-11.667
		c-0.243,0-0.442-0.078-0.599-0.234s-0.234-0.356-0.234-0.6v-4.166c0-0.243,0.078-0.442,0.234-0.6
		c0.156-0.155,0.355-0.234,0.599-0.234h2.5v-8.333h-2.5c-0.243,0-0.442-0.078-0.599-0.234s-0.234-0.356-0.234-0.599v-4.167
		c0-0.243,0.078-0.443,0.234-0.599s0.355-0.234,0.599-0.234h8.334c0.243,0,0.442,0.078,0.599,0.234s0.234,0.356,0.234,0.599V27.5
		h2.5c0.243,0,0.442,0.078,0.599,0.234c0.155,0.156,0.234,0.355,0.234,0.599V32.5L146.667,32.5L146.667,32.5z M136.667,5
		c0-0.243,0.078-0.443,0.235-0.599c0.156-0.156,0.355-0.234,0.598-0.234h5.001c0.243,0,0.442,0.079,0.599,0.234
		c0.156,0.156,0.234,0.356,0.234,0.599v4.167c0,0.243-0.078,0.442-0.234,0.599s-0.355,0.234-0.599,0.234H137.5
		c-0.242,0-0.441-0.078-0.598-0.234c-0.157-0.156-0.235-0.356-0.235-0.599V5L136.667,5z M157.318,9.96
		c-1.788-3.064-4.214-5.49-7.278-7.278C146.975,0.894,143.63,0,140.001,0s-6.976,0.894-10.04,2.682
		c-3.063,1.788-5.49,4.214-7.278,7.278S120,16.372,120,20c0,3.628,0.895,6.975,2.683,10.039c1.788,3.063,4.214,5.49,7.278,7.278
		S136.372,40,140,40c3.629,0,6.976-0.895,10.04-2.683c3.063-1.788,5.489-4.214,7.278-7.278C159.106,26.975,160,23.628,160,20
		C160,16.371,159.106,13.024,157.318,9.96L157.318,9.96z"/>
</g>
</svg>
