<?xml version="1.0" encoding="utf-8"?>
<!-- Generator: Adobe Illustrator 16.0.4, SVG Export Plug-In . SVG Version: 6.00 Build 0)  -->
<!DOCTYPE svg PUBLIC "-//W3C//DTD SVG 1.1//EN" "http://www.w3.org/Graphics/SVG/1.1/DTD/svg11.dtd">
<svg version="1.1" xmlns="http://www.w3.org/2000/svg" xmlns:xlink="http://www.w3.org/1999/xlink" x="0px" y="0px"
	 width="416.226px" height="119.291px" viewBox="0 0 416.226 119.291" enable-background="new 0 0 416.226 119.291"
	 xml:space="preserve">
<g>
	<g>
		<path fill="#ED1C24" d="M59.19,72.106l-7.45,16.502H37.219l8.353-17.117 M45.572,71.491l22.67-46.441h17.446l7.355,63.559h-14.24
			l-1.32-16.502H59.19 M76.919,61.732l-1.227-13.673c-0.282-3.488-0.565-8.58-0.847-12.446h-0.284
			c-1.603,3.866-3.395,8.771-5.091,12.446l-6.225,13.673H76.919z"/>
		<path fill="#ED1C24" d="M99.928,88.608l12.069-63.559h15.937l8.392,24.237c2.546,8.108,4.244,14.706,5.753,21.686h0.282
			c0.284-6.507,1.227-13.483,2.923-22.817l4.34-23.105h12.391l-11.732,63.559h-14.05l-8.864-25.368
			c-2.83-8.674-4.527-14.426-6.224-22.158h-0.283c-0.66,6.225-2.167,15.18-4.055,25.273l-4.243,22.253H99.928z"/>
		<path fill="#ED1C24" d="M165.557,73.896c3.772,2.264,9.053,4.054,14.994,4.054c5.187,0,9.995-2.45,9.995-7.352
			c0-3.679-2.735-5.942-8.581-9.055c-6.695-3.584-13.107-8.673-13.107-16.878c0-12.825,11.127-20.653,24.988-20.653
			c7.639,0,12.165,1.698,14.9,3.113l-4.244,11.316c-2.075-1.131-6.507-2.829-11.787-2.736c-6.318,0-9.619,3.113-9.619,6.603
			c0,3.771,3.866,6.033,9.242,9.053c7.731,4.054,12.541,9.242,12.541,16.876c0,14.146-11.693,21.41-25.744,21.41
			c-8.77-0.098-15.181-2.36-18.104-4.527L165.557,73.896z"/>
		<path fill="#ED1C24" d="M213.649,73.896c3.771,2.264,9.053,4.054,14.992,4.054c5.188,0,9.998-2.45,9.998-7.352
			c0-3.679-2.736-5.942-8.583-9.055c-6.694-3.584-13.107-8.673-13.107-16.878c0-12.825,11.127-20.653,24.99-20.653
			c7.638,0,12.163,1.698,14.898,3.113l-4.244,11.316c-2.074-1.131-6.506-2.829-11.787-2.736c-6.317,0-9.618,3.113-9.618,6.603
			c0,3.771,3.865,6.033,9.241,9.053c7.731,4.054,12.543,9.242,12.543,16.876c0,14.146-11.694,21.41-25.744,21.41
			c-8.771-0.098-15.183-2.36-18.106-4.527L213.649,73.896z"/>
	</g>
</g>
<g>
	<polygon fill="#FFFFFF" points="76.91,61.725 63.305,61.624 63.137,61.993 76.977,61.993 	"/>
	<polygon fill="#0072BC" points="50.313,61.876 63.745,61.876 74.53,35.745 76.91,61.725 90.223,61.876 85.701,24.988 
		68.118,24.781 	"/>
	<polygon fill="#0072BC" points="104.924,61.876 111.765,24.988 128.935,24.988 140.104,61.876 126.903,62.077 120.93,42.109 
		117.735,61.876 	"/>
	<polygon fill="#0072BC" points="142.853,61.876 149.414,24.988 162.032,24.988 155.191,61.876 	"/>
</g>
<g>
	<polygon fill="#FFFFFF" points="79.29,32.801 75.853,32.664 73.788,35.416 72.859,32.103 69.603,30.992 72.467,29.083 
		72.519,25.642 75.216,27.777 78.504,26.762 77.309,29.99 	"/>
	<polygon fill="#FFFFFF" points="68.6,47.845 65.163,47.708 63.099,50.459 62.169,47.147 58.914,46.036 61.778,44.127 
		61.829,40.686 64.526,42.821 67.814,41.806 66.619,45.034 	"/>
	<polygon fill="#FFFFFF" points="86.416,47.845 82.979,47.708 80.914,50.459 79.985,47.147 76.729,46.036 79.593,44.127 
		79.645,40.686 82.342,42.821 85.63,41.806 84.435,45.034 	"/>
	<polygon fill="#FFFFFF" points="118.879,49.825 115.442,49.687 113.378,52.439 112.449,49.126 109.193,48.015 112.057,46.107 
		112.108,42.666 114.806,44.8 118.094,43.786 116.898,47.013 	"/>
	<polygon fill="#FFFFFF" points="133.924,49.429 130.487,49.291 128.422,52.043 127.493,48.73 124.237,47.619 127.102,45.711 
		127.153,42.27 129.85,44.404 133.138,43.39 131.943,46.617 	"/>
	<polygon fill="#FFFFFF" points="155.698,49.825 152.261,49.687 150.197,52.439 149.268,49.126 146.012,48.015 148.876,46.107 
		148.927,42.666 151.625,44.8 154.913,43.786 153.717,47.013 	"/>
	<polygon fill="#FFFFFF" points="125.61,33.989 122.173,33.851 120.108,36.603 119.179,33.291 115.923,32.179 118.788,30.271 
		118.839,26.83 121.536,28.964 124.824,27.95 123.629,31.177 	"/>
	<polygon fill="#FFFFFF" points="158.866,33.989 155.429,33.851 153.364,36.603 152.435,33.291 149.179,32.179 152.043,30.271 
		152.095,26.83 154.792,28.964 158.08,27.95 156.885,31.177 	"/>
</g>
<g>
	<g>
		<g>
			<polyline fill="none" stroke="#FFFFFF" stroke-width="1.079" points="1.988,61.264 1.988,61.264 2.625,61.264 3.898,61.264 
				4.535,61.091 5.171,60.918 5.596,60.918 6.232,60.741 6.87,60.568 7.718,60.568 8.355,60.568 9.417,60.741 10.052,60.741 
				10.69,60.918 11.327,60.918 11.964,61.091 12.389,61.091 13.025,61.091 13.875,61.091 15.146,60.918 15.571,60.918 
				16.208,61.091 16.845,61.091 17.481,61.091 18.119,60.918 18.755,60.918 19.18,60.918 20.453,60.918 21.302,60.918 
				21.939,61.091 22.363,61.091 23,60.918 23.638,60.918 24.273,60.741 24.91,60.568 25.972,60.568 26.821,60.741 27.458,60.741 
				28.094,60.741 28.731,60.741 29.156,60.918 29.792,60.918 30.429,60.918 31.702,60.918 32.127,61.091 32.977,61.091 
				33.401,61.091 34.038,61.091 34.887,61.091 35.522,61.091 35.947,61.091 37.221,60.918 37.857,60.918 38.496,60.918 
				38.919,60.918 39.556,60.918 40.192,60.918 41.042,60.918 41.466,60.918 42.74,60.741 43.376,60.741 44.013,60.741 44.65,60.918 
				45.286,60.918 45.711,60.918 46.349,60.918 46.984,60.918 48.47,60.568 49.106,60.217 49.531,59.697 50.169,58.997 
				50.805,58.472 51.441,57.949 52.079,57.949 52.503,58.472 53.989,59.52 54.625,61.091 55.263,63.016 55.899,64.935 
				56.323,66.683 56.959,67.903 57.598,68.427 58.233,68.427 59.294,67.73 59.932,66.506 60.568,64.935 61.205,63.187 
				62.054,61.264 62.691,59.169 63.115,57.425 63.752,55.853 65.026,54.625 65.663,53.929 66.086,53.756 66.723,53.929 
				67.573,54.453 68.208,55.153 68.846,56.201 69.271,57.425 70.543,58.645 71.181,60.041 71.817,61.264 72.455,62.491 
				72.88,63.364 73.727,63.887 74.152,64.064 75.001,64.064 76.062,63.71 76.7,63.364 77.336,63.016 77.972,62.664 78.61,62.316 
				79.246,62.139 79.67,61.966 80.307,61.966 81.794,61.792 82.43,61.792 82.854,61.616 83.49,61.264 84.128,61.091 84.765,60.741 
				85.4,60.568 86.038,60.568 87.311,60.568 87.948,60.741 88.585,60.918 89.223,60.918 89.646,60.918 90.284,60.918 90.919,60.918 
				91.557,60.918 93.043,60.741 93.467,60.741 93.892,60.568 94.74,60.568 95.377,60.395 96.014,60.217 96.438,60.217 
				97.075,60.041 98.348,60.217 98.986,60.217 99.622,60.217 100.047,60.395 100.896,60.395 101.532,60.741 102.168,60.918 
				102.806,60.918 103.867,61.091 104.503,61.264 105.141,61.443 105.777,61.616 106.626,61.792 107.051,61.792 107.688,61.792 
				108.325,61.792 108.961,61.966 110.021,61.792 110.659,61.792 111.296,61.443 111.932,61.264 112.569,60.918 112.995,60.568 
				113.63,60.395 114.479,60.395 115.754,60.217 116.39,60.395 116.815,60.395 117.451,60.568 118.088,60.741 118.725,60.741 
				119.574,60.741 119.998,60.741 121.271,60.568 121.908,60.568 122.544,60.568 123.182,60.568 123.605,60.568 124.243,60.741 
				124.879,60.741 125.729,60.918 126.578,60.918 127.43,60.918 128.063,60.741 128.7,60.918 129.337,60.918 129.973,61.264 
				130.398,61.264 131.034,61.616 132.311,61.616 132.946,61.792 133.582,61.616 134.219,61.443 134.856,61.264 135.492,60.918 
				136.129,60.741 136.769,60.395 137.827,60.217 138.463,60.041 139.312,60.041 139.95,60.041 140.374,60.217 141.013,60.395 
				141.647,60.741 142.286,60.918 143.557,61.091 143.982,61.264 144.62,61.443 145.471,61.443 145.892,61.443 146.741,61.264 
				147.166,61.264 147.802,61.091 149.075,61.091 149.717,60.918 150.35,60.918 150.774,60.918 151.411,60.918 152.048,60.918 
				152.895,60.918 153.534,60.918 154.594,61.091 155.231,61.264 155.869,61.264 156.504,61.091 156.929,60.918 157.565,60.741 
				158.417,60.568 159.052,60.395 160.325,60.395 160.75,60.395 161.387,60.395 162.023,60.568 162.659,60.918 163.3,61.091 
				163.721,61.443 164.358,61.792 165.631,62.139 166.481,62.316 167.12,62.316 167.544,62.316 168.178,61.966 168.815,61.616 
				169.452,61.091 170.088,60.741 171.151,60.217 172.002,60.041 172.635,59.697 173.272,59.697 173.911,59.866 174.333,60.217 
				174.971,60.395 175.606,60.568 176.881,60.741 177.305,60.741 178.155,60.741 178.58,60.568 179.426,60.395 180.065,60.217 
				180.704,60.041 181.125,60.041 182.4,60.217 183.036,60.568 183.673,61.091 184.096,61.616 184.734,61.966 185.583,62.139 
				186.219,62.139 186.856,61.966 187.917,61.616 188.554,61.264 189.19,60.568 189.828,59.866 190.464,59.169 191.1,58.82 
				191.738,58.82 192.375,59.697 193.651,61.443 194.285,63.71 194.709,65.808 195.346,66.683 195.983,66.332 196.62,64.76 
				197.468,62.839 197.682,60.741 199.167,58.997 199.803,57.776 200.441,57.249 200.864,56.901 201.502,57.074 202.137,57.597 
				202.778,58.122 203.413,58.645 204.686,59.52 205.321,60.217 205.958,60.918 206.596,61.264 207.235,61.616 207.657,61.792 
				208.292,61.966 208.93,62.316 209.567,62.664 211.051,63.016 211.265,63.187 212.114,63.364 212.75,63.364 213.387,63.016 
				214.024,62.664 214.449,62.139 215.085,61.443 216.359,60.918 216.996,60.395 217.631,60.041 218.269,59.866 218.906,59.52 
				219.543,59.52 220.182,59.52 220.816,59.866 221.877,60.041 222.514,60.217 223.151,60.395 224,60.395 224.639,60.568 
				225.065,60.741 225.698,60.741 226.334,60.918 227.608,60.918 228.034,61.091 228.668,61.264 229.309,61.443 230.155,61.792 
				230.579,61.792 231.428,61.443 231.852,60.918 233.127,60.395 233.766,59.866 234.401,59.52 234.824,59.343 235.461,59.52 
				236.098,59.866 236.734,60.395 237.583,61.091 238.646,61.966 239.281,62.839 239.918,63.54 240.556,64.064 241.192,64.411 
				241.617,64.237 242.252,63.54 242.89,62.664 244.163,61.616 244.801,60.395 245.436,59.52 246.075,58.472 246.714,57.597 
				247.347,57.074 247.984,57.249 248.409,58.296 249.683,59.866 250.318,61.264 251.171,62.139 251.593,61.792 252.229,61.091 
				252.866,60.041 253.502,59.343 254.139,58.997 255.2,59.169 255.84,59.866 256.686,61.264 257.322,63.364 257.959,65.808 
				258.384,67.903 259.021,69.129 259.659,69.302 260.933,68.778 261.568,67.903 261.993,66.506 262.843,63.71 263.479,58.122 
				264.113,49.387 264.755,38.206 265.176,26.852 266.45,19.34 267.087,18.469 267.723,25.281 268.359,38.033 268.784,53.578 
				269.422,69.129 270.058,82.755 270.906,93.936 271.968,102.843 272.605,109.833 273.245,115.073 273.877,117.871 
				274.515,116.823 275.151,110.53 275.576,99.176 276.425,83.458 277.701,64.587 278.334,44.844 278.76,26.852 279.396,12.877 
				280.034,5.364 280.671,4.317 281.308,9.208 281.943,18.469 283.005,29.995 283.854,41.35 284.491,50.958 285.127,57.949 
				285.551,62.139 286.189,64.587 286.829,65.635 287.464,66.332 288.524,67.379 289.159,68.955 290.01,71.049 290.646,73.322 
				291.285,75.244 291.918,76.114 292.344,75.768 292.979,73.495 294.255,70.002 294.889,65.635 295.531,61.792 296.164,59.169 
				296.801,58.296 297.438,59.169 298.075,61.091 298.712,63.71 299.776,66.159 300.409,67.903 301.046,68.254 301.683,66.856 
				302.108,64.411 302.745,61.264 303.593,58.296 304.233,56.024 305.502,54.453 305.929,53.405 306.564,53.232 307.201,53.578 
				307.839,54.453 308.476,55.5 309.112,56.55 309.749,57.425 311.021,58.122 311.659,58.997 312.296,60.217 312.72,62.316 
				313.359,64.935 313.995,67.73 314.63,69.478 315.479,69.478 315.689,67.379 317.176,63.71 317.814,59.866 318.45,56.55 
				319.087,55.153 319.51,55.5 320.149,56.901 320.785,58.82 321.421,60.568 322.696,61.792 323.333,62.839 323.97,63.71 
				324.605,64.76 325.243,65.983 325.88,67.379 326.308,67.73 326.939,66.856 328.426,64.237 329.063,60.041 329.487,54.625 
				330.124,48.691 330.767,43.447 331.396,40.127 332.034,39.604 332.459,41.35 333.733,45.022 334.583,49.739 335.006,54.977 
				335.643,60.568 336.28,66.683 336.917,73.149 337.554,80.135 338.189,86.774 339.251,92.365 339.888,96.032 340.526,96.555 
				341.16,93.936 342.01,88.518 342.646,80.838 343.071,72.274 343.708,63.54 344.98,54.977 345.618,46.766 346.043,38.733 
				346.681,31.57 347.317,25.804 348.167,22.66 348.595,23.183 349.439,27.9 350.501,36.285 351.138,46.766 351.776,57.425 
				352.41,66.856 352.837,74.018 353.472,78.733 354.108,81.009 354.745,81.536 356.23,80.135 356.653,77.339 357.296,73.322 
				357.929,68.254 358.564,63.016 359.201,58.122 359.627,54.625 360.263,52.704 361.751,52.881 362.385,54.453 363.021,56.901 
				363.447,59.343 364.083,61.091 364.722,61.966 365.358,61.792 365.995,60.395 367.268,58.472 367.692,56.201 368.542,54.625 
				369.179,54.28 369.814,55.853 370.238,59.169 370.877,63.54 371.513,68.082 372.788,71.57 373.212,73.149 373.847,72.622 
				374.697,70.002 375.333,66.159 375.972,61.792 376.393,57.425 377.032,53.578 378.306,50.435 378.939,48.167 379.576,46.766 
				380.002,46.419 380.852,46.593 381.276,47.991 382.126,50.613 382.76,54.977 383.826,61.264 384.462,69.302 385.097,78.036 
				385.734,86.422 386.37,92.365 386.793,94.811 387.431,92.365 388.284,85.899 389.556,76.464 389.977,65.635 390.613,55.153 
				391.251,46.419 391.889,40.127 392.524,36.985 393.163,36.46 393.797,38.206 395.071,41.528 395.708,45.892 396.345,50.613 
				396.768,54.977 397.407,58.472 398.043,61.264 398.681,63.54 399.317,65.462 400.593,67.03 401.227,68.605 401.863,69.653 
				402.501,69.826 403.138,69.129 403.563,67.73 404.197,65.808 404.837,63.887 406.109,62.316 406.747,61.264 407.171,60.918 
				408.018,61.091 408.657,60.918 409.293,60.395 409.931,59.343 410.355,57.949 411.626,56.724 412.264,56.201 413.112,56.55 
				413.751,57.597 414.175,58.997 414.814,60.041 415.45,60.568 416.084,60.395 			"/>
		</g>
	</g>
	<g>
		<g>
			<polyline fill="none" stroke="#0072BC" stroke-width="2" points="0.362,59.903 0.362,59.903 1,59.903 2.272,59.903 2.91,59.728 
				3.546,59.555 3.971,59.555 4.607,59.379 5.244,59.203 6.093,59.203 6.73,59.203 7.791,59.379 8.427,59.379 9.064,59.555 
				9.701,59.555 10.339,59.728 10.763,59.728 11.4,59.728 12.249,59.728 13.521,59.555 13.946,59.555 14.583,59.728 15.22,59.728 
				15.856,59.728 16.494,59.555 17.13,59.555 17.555,59.555 18.829,59.555 19.678,59.555 20.314,59.728 20.739,59.728 
				21.375,59.555 22.012,59.555 22.648,59.379 23.285,59.203 24.347,59.203 25.197,59.379 25.833,59.379 26.468,59.379 
				27.106,59.379 27.531,59.555 28.167,59.555 28.804,59.555 30.077,59.555 30.502,59.728 31.352,59.728 31.775,59.728 
				32.412,59.728 33.262,59.728 33.897,59.728 34.322,59.728 35.596,59.555 36.232,59.555 36.87,59.555 37.294,59.555 
				37.931,59.555 38.567,59.555 39.416,59.555 39.841,59.555 41.115,59.379 41.751,59.379 42.387,59.379 43.025,59.555 
				43.662,59.555 44.085,59.555 44.723,59.555 45.36,59.555 46.845,59.203 47.481,58.852 47.906,58.334 48.543,57.631 
				49.179,57.107 49.816,56.583 50.454,56.583 50.878,57.107 52.364,58.155 53,59.728 53.637,61.651 54.274,63.574 54.698,65.318 
				55.335,66.542 55.973,67.066 56.608,67.066 57.669,66.365 58.307,65.145 58.943,63.574 59.579,61.824 60.429,59.903 
				61.066,57.807 61.489,56.06 62.127,54.488 63.401,53.264 64.037,52.568 64.462,52.393 65.098,52.568 65.947,53.089 
				66.583,53.792 67.221,54.839 67.646,56.06 68.918,57.284 69.556,58.679 70.192,59.903 70.83,61.126 71.254,62.001 72.102,62.526 
				72.527,62.699 73.376,62.699 74.437,62.349 75.075,62.001 75.71,61.651 76.347,61.299 76.985,60.954 77.621,60.776 
				78.046,60.603 78.682,60.603 80.168,60.43 80.805,60.43 81.229,60.253 81.866,59.903 82.503,59.728 83.14,59.379 83.776,59.203 
				84.414,59.203 85.686,59.203 86.324,59.379 86.96,59.555 87.597,59.555 88.021,59.555 88.658,59.555 89.294,59.555 
				89.932,59.555 91.417,59.379 91.842,59.379 92.267,59.203 93.114,59.203 93.752,59.032 94.389,58.852 94.813,58.852 
				95.45,58.679 96.723,58.852 97.36,58.852 97.997,58.852 98.421,59.032 99.271,59.032 99.907,59.379 100.543,59.555 
				101.181,59.555 102.242,59.728 102.878,59.903 103.516,60.08 104.152,60.253 105.001,60.43 105.426,60.43 106.062,60.43 
				106.7,60.43 107.336,60.603 108.396,60.43 109.035,60.43 109.671,60.08 110.307,59.903 110.944,59.555 111.369,59.203 
				112.005,59.032 112.854,59.032 114.128,58.852 114.764,59.032 115.189,59.032 115.825,59.203 116.463,59.379 117.1,59.379 
				117.949,59.379 118.373,59.379 119.646,59.203 120.283,59.203 120.92,59.203 121.558,59.203 121.981,59.203 122.618,59.379 
				123.254,59.379 124.104,59.555 124.953,59.555 125.805,59.555 126.438,59.379 127.074,59.555 127.712,59.555 128.348,59.903 
				128.773,59.903 129.409,60.253 130.686,60.253 131.321,60.43 131.957,60.253 132.593,60.08 133.231,59.903 133.867,59.555 
				134.503,59.379 135.144,59.032 136.202,58.852 136.838,58.679 137.687,58.679 138.325,58.679 138.749,58.852 139.389,59.032 
				140.022,59.379 140.66,59.555 141.932,59.728 142.356,59.903 142.995,60.08 143.846,60.08 144.266,60.08 145.116,59.903 
				145.542,59.903 146.176,59.728 147.452,59.728 148.091,59.555 148.725,59.555 149.149,59.555 149.786,59.555 150.422,59.555 
				151.27,59.555 151.909,59.555 152.969,59.728 153.606,59.903 154.243,59.903 154.879,59.728 155.304,59.555 155.94,59.379 
				156.793,59.203 157.426,59.032 158.7,59.032 159.125,59.032 159.762,59.032 160.398,59.203 161.035,59.555 161.674,59.728 
				162.096,60.08 162.733,60.43 164.006,60.776 164.856,60.954 165.495,60.954 165.919,60.954 166.553,60.603 167.191,60.253 
				167.827,59.728 168.462,59.379 169.526,58.852 170.377,58.679 171.011,58.334 171.647,58.334 172.285,58.504 172.708,58.852 
				173.346,59.032 173.981,59.203 175.256,59.379 175.68,59.379 176.53,59.379 176.954,59.203 177.801,59.032 178.44,58.852 
				179.079,58.679 179.5,58.679 180.774,58.852 181.411,59.203 182.047,59.728 182.471,60.253 183.109,60.603 183.958,60.776 
				184.594,60.776 185.231,60.603 186.293,60.253 186.929,59.903 187.566,59.203 188.204,58.504 188.839,57.807 189.476,57.458 
				190.114,57.458 190.75,58.334 192.026,60.08 192.66,62.349 193.083,64.447 193.721,65.318 194.358,64.97 194.994,63.399 
				195.842,61.478 196.057,59.379 197.542,57.631 198.178,56.411 198.816,55.887 199.239,55.536 199.877,55.712 200.512,56.236 
				201.154,56.76 201.787,57.284 203.06,58.155 203.697,58.852 204.333,59.555 204.97,59.903 205.61,60.253 206.032,60.43 
				206.668,60.603 207.305,60.954 207.942,61.299 209.427,61.651 209.64,61.824 210.489,62.001 211.125,62.001 211.762,61.651 
				212.399,61.299 212.825,60.776 213.459,60.08 214.735,59.555 215.37,59.032 216.006,58.679 216.643,58.504 217.28,58.155 
				217.918,58.155 218.557,58.155 219.19,58.504 220.252,58.679 220.889,58.852 221.525,59.032 222.374,59.032 223.015,59.203 
				223.44,59.379 224.073,59.379 224.709,59.555 225.983,59.555 226.408,59.728 227.043,59.903 227.684,60.08 228.53,60.43 
				228.954,60.43 229.803,60.08 230.228,59.555 231.501,59.032 232.141,58.504 232.776,58.155 233.198,57.982 233.836,58.155 
				234.473,58.504 235.11,59.032 235.958,59.728 237.021,60.603 237.656,61.478 238.293,62.174 238.931,62.699 239.567,63.049 
				239.991,62.875 240.627,62.174 241.264,61.299 242.538,60.253 243.175,59.032 243.811,58.155 244.45,57.107 245.089,56.236 
				245.722,55.712 246.359,55.887 246.784,56.934 248.056,58.504 248.693,59.903 249.546,60.776 249.967,60.43 250.604,59.728 
				251.241,58.679 251.878,57.982 252.514,57.631 253.575,57.807 254.215,58.504 255.06,59.903 255.697,62.001 256.334,64.447 
				256.759,66.542 257.396,67.766 258.033,67.94 259.306,67.415 259.942,66.542 260.368,65.145 261.217,62.349 261.853,56.76 
				262.488,48.026 263.13,36.84 263.551,25.491 264.825,17.979 265.462,17.104 266.098,23.917 266.734,36.669 267.159,52.216 
				267.796,67.766 268.433,81.387 269.281,92.569 270.343,101.482 270.98,108.466 271.62,113.705 272.252,116.503 272.892,115.456 
				273.526,109.167 273.951,97.807 274.801,82.091 276.076,63.222 276.712,43.482 277.135,25.491 277.771,11.512 278.409,4.002 
				279.046,2.955 279.681,7.846 280.318,17.104 281.38,28.633 282.229,39.987 282.866,49.597 283.502,56.583 283.926,60.776 
				284.564,63.222 285.204,64.27 285.837,64.97 286.899,66.014 287.535,67.593 288.384,69.688 289.021,71.957 289.66,73.878 
				290.293,74.749 290.719,74.405 291.355,72.129 292.63,68.64 293.267,64.27 293.905,60.43 294.539,57.807 295.176,56.934 
				295.813,57.807 296.45,59.728 297.087,62.349 298.151,64.793 298.784,66.542 299.421,66.889 300.058,65.494 300.48,63.049 
				301.118,59.903 301.968,56.934 302.608,54.663 303.877,53.089 304.301,52.042 304.939,51.869 305.576,52.216 306.212,53.089 
				306.851,54.137 307.487,55.188 308.122,56.06 309.396,56.76 310.034,57.631 310.671,58.852 311.095,60.954 311.733,63.574 
				312.368,66.365 313.005,68.117 313.854,68.117 314.067,66.014 315.551,62.349 316.188,58.504 316.825,55.188 317.462,53.792 
				317.885,54.137 318.524,55.536 319.16,57.458 319.796,59.203 321.071,60.43 321.708,61.478 322.345,62.349 322.98,63.399 
				323.618,64.621 324.255,66.014 324.683,66.365 325.314,65.494 326.801,62.875 327.438,58.679 327.862,53.264 328.499,47.326 
				329.139,42.085 329.771,38.764 330.409,38.241 330.833,39.987 332.108,43.659 332.955,48.374 333.381,53.614 334.018,59.203 
				334.653,65.318 335.292,71.784 335.929,78.768 336.564,85.407 337.626,90.998 338.263,94.665 338.899,95.188 339.535,92.569 
				340.385,87.157 341.021,79.47 341.446,70.909 342.083,62.174 343.355,53.614 343.993,45.405 344.417,37.371 345.056,30.208 
				345.689,24.443 346.539,21.296 346.968,21.82 347.813,26.538 348.876,34.923 349.51,45.405 350.149,56.06 350.784,65.494 
				351.214,72.653 351.847,77.375 352.484,79.643 353.12,80.167 354.604,78.768 355.032,75.976 355.671,71.957 356.306,66.889 
				356.939,61.651 357.579,56.76 358.001,53.264 358.639,51.341 360.127,51.516 360.763,53.089 361.399,55.536 361.821,57.982 
				362.458,59.728 363.095,60.603 363.733,60.43 364.368,59.032 365.642,57.107 366.067,54.839 366.914,53.264 367.554,52.917 
				368.188,54.488 368.613,57.807 369.251,62.174 369.888,66.718 371.163,70.207 371.587,71.784 372.223,71.259 373.071,68.64 
				373.708,64.793 374.345,60.43 374.771,56.06 375.407,52.216 376.681,49.074 377.317,46.801 377.954,45.405 378.376,45.057 
				379.227,45.23 379.651,46.628 380.501,49.248 381.138,53.614 382.201,59.903 382.834,67.94 383.47,76.672 384.108,85.061 
				384.745,90.998 385.171,93.444 385.806,90.998 386.659,84.538 387.929,75.101 388.354,64.27 388.991,53.792 389.627,45.057 
				390.264,38.764 390.899,35.62 391.538,35.096 392.175,36.84 393.447,40.163 394.084,44.53 394.72,49.248 395.146,53.614 
				395.782,57.107 396.418,59.903 397.054,62.174 397.692,64.097 398.966,65.668 399.602,67.242 400.238,68.29 400.876,68.462 
				401.513,67.766 401.937,66.365 402.572,64.447 403.212,62.526 404.483,60.954 405.122,59.903 405.546,59.555 406.393,59.728 
				407.03,59.555 407.668,59.032 408.306,57.982 408.733,56.583 410.002,55.363 410.639,54.839 411.488,55.188 412.126,56.236 
				412.551,57.631 413.188,58.679 413.825,59.203 414.459,59.032 			"/>
		</g>
	</g>
</g>
<g>
</g>
</svg>
